<svg xmlns="http://www.w3.org/2000/svg" xmlns:xlink="http://www.w3.org/1999/xlink" viewBox="0 0 429.5 243.8"><defs><style>.a,.d{fill:#f6f1ed;}.b{fill:#1e1d1e;}.c{clip-path:url(#a);}.d{stroke:#1e1d1e;stroke-miterlimit:10;}.e{clip-path:url(#b);}</style><clipPath id="a"><path d="M288.9,92.6l14.3,11.2a6.279,6.279,0,0,1,2.5,4.6L291.4,97.2A6.279,6.279,0,0,0,288.9,92.6Z"/></clipPath><clipPath id="b"><path d="M266,150.6l-14.3-11.2c-4.8-3.8-7-9.7-6.5-18l14.3,11.2C259,141,261.2,146.8,266,150.6Z"/></clipPath></defs><path class="a" d="M394,216.1l-7.5-15,12.4,9.8,7.5,15Z"/><path class="b" d="M387.9,202.9l10.6,8.3,6.5,13-10.6-8.3-6.5-13m-2.9-3.6,8.6,17.2,14.3,11.2-8.6-17.2L385,199.3Z"/><path class="a" d="M384.4,182.3h.3a2.92,2.92,0,0,0,.9-.2l.2-.1a5.639,5.639,0,0,0,1.2-.4l.3-.1c.2-.1.5-.2.7-.3a.31.31,0,0,1,.2-.1,1.794,1.794,0,0,0,.7-.5l.1-.1c.2-.2.4-.3.6-.5l.1-.1a2.651,2.651,0,0,0,.5-.6l.2-.2.6-.9.1-.1a6.893,6.893,0,0,0,.4-1l.1-.2c.1-.3.2-.7.3-1.1v-.3a5.739,5.739,0,0,0,.1-1.2,9.721,9.721,0,0,0-.4-3.1l11.7,9.2c1.4,1.1,2,2.8,2,5.1a4.484,4.484,0,0,1-.1,1.1v.2c-.1.4-.1.7-.2,1v.1a6.9,6.9,0,0,1-.3.8l-.1.2a3.508,3.508,0,0,1-.5.8l-.1.1-.1.1c-.1.2-.3.3-.4.5l-.1.1c-.2.2-.4.3-.6.5l-.1.1a1.612,1.612,0,0,1-.7.4l-.2.1-.6.3H401c-.4.1-.7.3-1.1.4h-.2c-.3.1-.6.1-.8.2h-.3c-.3,0-.6.1-1,.1Z"/><path class="b" d="M392.4,172.4l10.6,8.3a5.821,5.821,0,0,1,1.8,4.7,4.484,4.484,0,0,1-.1,1.1v.2c-.1.3-.1.7-.2,1v.1a4.878,4.878,0,0,1-.3.7v.2c-.1.2-.3.5-.4.7v.1l-.1.1a.781.781,0,0,1-.4.4l-.1.1h0l-.4.4-.1.1h0c-.2.1-.4.3-.6.4h0a.1.1,0,0,0-.1.1l-.6.3h-.2c-.4.1-.7.2-1.1.3h-.2c-.3.1-.5.1-.8.2h-.3c-.3,0-.5.1-.8.1l-12.1-9.5h.4a6.469,6.469,0,0,0,1.3-.4c.1,0,.2-.1.3-.1a2.994,2.994,0,0,0,.8-.4h.1c.1,0,.1-.1.2-.1a5.582,5.582,0,0,0,.8-.5l.1-.1c.2-.2.4-.3.6-.5l.1-.1h0a2.651,2.651,0,0,0,.5-.6h0c0-.1.1-.1.1-.2a8.8,8.8,0,0,0,.6-1,.1.1,0,0,1,.1-.1h0a3,3,0,0,0,.4-1v-.1c.1-.4.2-.7.3-1.2v-.3a6.151,6.151,0,0,0,.1-1.3c-.2-.9-.2-1.5-.3-2.1m-3.1-3.7c1.5,1.2,2.2,3.1,2.2,5.5,0,.4-.1.8-.1,1.2v.2c-.1.4-.1.7-.2,1.1,0,.1,0,.1-.1.2l-.3.9c0,.1-.1.1-.1.2a5.582,5.582,0,0,1-.5.8c0,.1-.1.1-.1.2a1.205,1.205,0,0,1-.5.5l-.2.2a1.755,1.755,0,0,1-.5.4l-.1.1c-.2.2-.5.3-.7.5-.1,0-.1.1-.2.1a4.875,4.875,0,0,1-.7.3.349.349,0,0,0-.2.1c-.4.1-.8.3-1.2.4-.1,0-.2,0-.2.1-.3.1-.6.1-.9.2h-.3c-.4,0-.8.1-1.2.1l14.3,11.2c.4,0,.8-.1,1.2-.1h.3a2.92,2.92,0,0,0,.9-.2h.3a5.639,5.639,0,0,0,1.2-.4h.1a.1.1,0,0,0,.1-.1c.2-.1.5-.2.7-.3a.1.1,0,0,0,.1-.1h0a3.039,3.039,0,0,0,.7-.5h0a.1.1,0,0,0,.1-.1,2.182,2.182,0,0,0,.5-.4l.1-.1.1-.1.5-.5.1-.1v-.1a3.508,3.508,0,0,0,.5-.8c0-.1.1-.1.1-.2l.3-.9c0-.1,0-.1.1-.2a3.6,3.6,0,0,0,.2-1.1v-.2a4.868,4.868,0,0,0,.1-1.2,6.28,6.28,0,0,0-2.2-5.5l-14.3-11.3Z"/><path class="a" d="M370.2,182.9l12.7-.5L396,192.7l-12.7.5Z"/><path class="b" d="M382.8,182.9l11.9,9.3-11.2.5-11.9-9.3,11.2-.5m.3-1-14.3.6,14.3,11.2,14.3-.6-14.3-11.2Z"/><path class="b" d="M418.2,204.9l11.3,21.9-21.7.9-8.6-17.2-16.7.7-.5,17.5-22,.9,1.9-68.2,38.3-1.6c18.5-.8,28.7,6.9,28.2,24.9A24.809,24.809,0,0,1,418.2,204.9Zm-20.8-11.8c5.4-.2,8.3-3,8.4-7.6s-2.6-7.2-8-7l-14.3.6-.4,14.6,14.3-.6"/><path class="a" d="M346.3,218.2l1.9-66.9,13.3,10.4-1.9,67Z"/><path class="b" d="M348.7,152.3,361,162l-1.8,65.7L346.9,218l1.8-65.7m-1-2-1.9,68.2,14.3,11.2,1.9-68.2-14.3-11.2Z"/><path class="a" d="M415.8,161.5c-.3-.1-.5-.2-.8-.3-.1,0-.2-.1-.4-.1l-.2-.1c-.6-.2-1.1-.3-1.7-.5a6.37,6.37,0,0,0-.7-.2h-.2c-.5-.1-1.1-.2-1.6-.3-.3-.1-.7-.1-1-.2-.6-.1-1.2-.1-1.7-.2h-.2c-.3,0-.5-.1-.8-.1-.7,0-1.3-.1-2-.1h-4L362.4,161l-13.1-10.3,37-1.5H390a13.4,13.4,0,0,1,2,.1,1.949,1.949,0,0,1,.8.1h.2c.6.1,1.1.1,1.7.2.3,0,.7.1,1,.1.5.1,1.1.2,1.6.3h.2c.2,0,.4.1.6.1a10.928,10.928,0,0,1,1.7.5l.3.1c.1,0,.2.1.3.1.7.3,1.4.5,2.1.8.1,0,.1.1.2.1l.2.1c.5.2.9.4,1.3.6l.6.4c.7.4,1.2.8,1.7,1.1Z"/><path class="b" d="M388.3,149.7h1.6c.8,0,1.4.1,2,.1a2.2,2.2,0,0,1,.8.1h.2c.6.1,1.2.1,1.7.2.3,0,.7.1,1,.1.5.1,1,.2,1.6.3h.2c.2,0,.4.1.6.1.5.1,1,.3,1.7.5.1,0,.2.1.3.1s.2.1.3.1a18.027,18.027,0,0,1,2.1.8c.1,0,.1.1.2.1s.1.1.2.1h.1l1.2.6a.1.1,0,0,1,.1.1c.1,0,.1.1.2.1s.1.1.2.1l.1.1c.6.4,1.2.8,1.6,1.1l7.2,5.7c-.2-.1-.4-.1-.6-.2s-.5-.1-.7-.2H412c-.6-.1-1.1-.2-1.7-.3-.3-.1-.7-.1-1-.2-.5-.1-1.1-.1-1.8-.2h-.2c-.3,0-.6-.1-.8-.1-.6,0-1.2-.1-2.1-.1h-4.1l-37.9,1.6-11.9-9.3,35.6-1.5h.1a13.431,13.431,0,0,0,2.1.1m0-1H386l-38.3,1.6L362,161.5l38.3-1.6h3.9a12.749,12.749,0,0,1,2,.1c.3,0,.7.1,1,.1.6.1,1.2.1,1.7.2a3.553,3.553,0,0,1,1,.2c.6.1,1.1.2,1.6.3.3.1.6.1.9.2a8.447,8.447,0,0,1,1.7.5c.2.1.4.1.6.2.7.3,1.5.5,2.1.8.1.1.3.1.4.2.5.3,1.1.5,1.6.8.1.1.2.1.3.2.6.4,1.2.8,1.7,1.2l-14.3-11.2c-.5-.4-1.1-.8-1.7-1.2-.1-.1-.2-.1-.3-.2s-.2-.1-.3-.2a8.264,8.264,0,0,1-1.3-.7c-.1-.1-.3-.1-.4-.2a18.027,18.027,0,0,0-2.1-.8c-.2-.1-.4-.1-.6-.2-.6-.2-1.1-.3-1.7-.5-.3-.1-.6-.1-.9-.2-.5-.1-1.1-.2-1.6-.3-.3-.1-.7-.1-1-.2-.6-.1-1.1-.1-1.7-.2-.3,0-.7-.1-1-.1-.7,0-1.3-.1-2-.1H389a1.483,1.483,0,0,1-.7.1Z"/><path class="a" d="M303.6,202.2l36.8-1.5L353.5,211l-36.8,1.5Z"/><path class="b" d="M340.2,201.2l11.9,9.3-35.2,1.4L305,202.6l35.2-1.4m.4-1-38.3,1.6L316.6,213l38.3-1.6-14.3-11.2Z"/><path class="a" d="M304.3,178.8l34.9-1.4,13,10.3-34.8,1.4Z"/><path class="b" d="M339,177.9l11.9,9.3-33.3,1.4-11.9-9.3,33.3-1.4m.3-1-36.4,1.5,14.3,11.2,36.4-1.5-14.3-11.2Z"/><path class="b" d="M356.3,161.7l-.5,17.6-38.3,1.5-.3,8.8,36.4-1.5-.4,14.6-36.4,1.5-.3,8.8,38.4-1.6-.6,18.5L294,232.4l1.9-68.2Z"/><path class="a" d="M280.2,220.9l1.9-66.9,13.3,10.5-1.9,66.9Z"/><path class="b" d="M282.6,155l12.3,9.7-1.8,65.7-12.3-9.7,1.8-65.7m-1-2-1.9,68.2L294,232.4l1.9-68.2L281.6,153Z"/><path class="a" d="M283,153.4l58.8-2.4,13.1,10.3-58.8,2.4Z"/><path class="b" d="M341.6,151.5l11.9,9.3-57.3,2.3-11.9-9.3,57.3-2.3m.4-1L281.7,153,296,164.2l60.3-2.5L342,150.5Z"/><path class="a" d="M229.4,223l1.4-48.4L244.1,185l-1.3,48.5Z"/><path class="b" d="M231.3,175.6l12.3,9.7-1.3,47.2L230,222.8l1.3-47.2m-1-2-1.4,49.6,14.3,11.2,1.4-49.6-14.3-11.2Z"/><path class="b" d="M291.1,164.4l-.5,18.5-23.9,1-1.4,49.7-22.1.9,1.4-49.7-23.9,1,.5-18.5Z"/><path class="a" d="M206.9,174.3l.5-17.2,13.3,10.4-.5,17.3Z"/><path class="b" d="M207.8,158.1l12.3,9.7-.4,16-12.3-9.7.4-16m-.9-2.1-.5,18.5,14.3,11.2.5-18.5L206.9,156Z"/><path class="a" d="M208.3,156.5l68.4-2.8,13,10.3-68.3,2.8Z"/><path class="b" d="M276.5,154.2l11.9,9.3-66.9,2.7-11.9-9.3,66.9-2.7m.3-1-69.9,2.9,14.3,11.2,69.9-2.9-14.3-11.2Z"/><path class="a" d="M290.5,138.3h-2.3c-.3,0-.6-.1-.9-.1a1.268,1.268,0,0,1-.6-.1c-.3,0-.6-.1-.8-.1a4.331,4.331,0,0,1-.5-.1,6.378,6.378,0,0,1-.7-.2,2.268,2.268,0,0,0-.4-.1,4.877,4.877,0,0,1-.7-.3l-.3-.1c-.3-.1-.6-.3-.9-.4a9.227,9.227,0,0,0-.8-.5l-11.1-8.7c.1,0,.3.1.4.1a4.331,4.331,0,0,1,.5.1,2.769,2.769,0,0,0,.9.1c.2,0,.4.1.6.1.3,0,.6.1,1,.1h4.7c.5,0,1-.1,1.5-.1h.5c.3,0,.6-.1,1-.1l.5-.1c.3,0,.5-.1.8-.1l.5-.1c.2,0,.5-.1.7-.1.1,0,.3-.1.4-.1a6.375,6.375,0,0,0,.7-.2c.1,0,.3-.1.4-.1.2-.1.4-.1.6-.2s.3-.1.4-.2l.3-.1c.2-.1.3-.2.5-.2l.2-.1c.1,0,.1-.1.2-.1a5.735,5.735,0,0,1,.7-.4c.1-.1.2-.1.3-.2s.3-.2.4-.4c.1-.1.2-.1.2-.2l.5-.5.1-.1c.1-.1.1-.2.2-.3l.1-.1c0-.1.1-.1.1-.2a.367.367,0,0,0,.1-.3l.1-.1c0-.1.1-.1.1-.2s.1-.2.1-.4v-.3c0-.2.1-.4.1-.6a3.749,3.749,0,0,0-.1-1.1L303,130a2.98,2.98,0,0,1,1.2,2.8.9.9,0,0,1-.1.5v.2c0,.1-.1.2-.1.3l-.1.2a.367.367,0,0,0-.1.3l-.1.2c-.1.1-.1.2-.2.3-.2.2-.3.4-.4.5l-.1.1-.1.1a1.381,1.381,0,0,1-.4.3l-.1.1-.1.1c-.2.1-.3.2-.5.3l-.1.1-.3.2a2.186,2.186,0,0,0-.5.3l-.4.2-.2.1c-.2.1-.4.1-.6.2-.1,0-.3.1-.4.1a6.37,6.37,0,0,1-.7.2l-.3.1h-.2a1.483,1.483,0,0,1-.7.1l-.5.1c-.2,0-.5.1-.8.1l-.5.1c-.3,0-.6.1-.9.1h-.5c-.5,0-1,.1-1.5.1h-1.8Z"/><path class="b" d="M291.4,121.6l11.2,8.8a2.392,2.392,0,0,1,1,2.4v.9l-.1.1v.1a.1.1,0,0,1-.1.1v.1l-.1.1-.1.1a.1.1,0,0,1-.1.1h0c-.1.1-.2.3-.3.4v.1h0l-.1.1-.3.3-.1.1-.1.1c-.2.1-.3.2-.5.3l-.1.1h-.1l-.1.1h-.1c-.1.1-.3.1-.4.2a.349.349,0,0,0-.2.1h-.3a.1.1,0,0,0-.1.1c-.2.1-.4.1-.6.2-.1,0-.3.1-.4.1-.2.1-.4.1-.6.2h-.5c-.2,0-.4.1-.7.1h-.1a.756.756,0,0,0-.4.1c-.2,0-.5.1-.8.1h-.5c-.3,0-.6.1-.9.1h-.5c-.5,0-1,.1-1.5.1h-4.4c-.3,0-.6-.1-.9-.1a.749.749,0,0,1-.5-.1c-.3,0-.5-.1-.8-.1-.2,0-.3-.1-.5-.1-.2-.1-.5-.1-.7-.2h-.1a.367.367,0,0,1-.3-.1,1.854,1.854,0,0,0-.7-.2l-.2-.1h-.1a2.994,2.994,0,0,1-.8-.4h0a4.235,4.235,0,0,1-.7-.5l-9.5-7.5a.6.6,0,0,1,.4.1c.3,0,.6.1,1,.1h4.8c.5,0,1.1-.1,1.6-.1h.5c.3,0,.7-.1,1-.1a.6.6,0,0,0,.4-.1h.2c.3,0,.5-.1.8-.1.1,0,.3-.1.4-.1h.1a1.854,1.854,0,0,0,.7-.2c.1,0,.3-.1.4-.1h.1c.2-.1.5-.1.7-.2.2,0,.3-.1.5-.1a1.421,1.421,0,0,1,.6-.2h.1c.1-.1.3-.1.4-.2.1,0,.2-.1.3-.1a2.185,2.185,0,0,0,.5-.3h.1c.1,0,.1-.1.2-.1s.1-.1.2-.1h.1c.2-.1.4-.3.6-.4.1-.1.2-.1.3-.2.2-.1.3-.3.4-.4h.1l.2-.2c.2-.2.3-.4.5-.6l.1-.1c.1-.1.1-.2.2-.3v-.2c0-.1.1-.1.1-.2.1-.1.1-.2.2-.3v-.1h0a.349.349,0,0,1,.1-.2c0-.1.1-.3.1-.4v-.1c0-.1,0-.1.1-.2-.3-.1-.3-.4-.3-.6h0m-2.4-3.2a3.34,3.34,0,0,1,1.4,3.2,1.268,1.268,0,0,1-.1.6c0,.1,0,.1-.1.2,0,.1-.1.2-.1.4,0,.1-.1.1-.1.2s-.1.2-.1.3-.1.1-.1.2c-.1.1-.1.2-.2.3l-.1.1c-.1.2-.3.3-.4.5l-.2.2a1.381,1.381,0,0,1-.4.3c-.1.1-.2.1-.2.2a2.092,2.092,0,0,0-.6.4c-.1.1-.2.1-.3.2a.349.349,0,0,0-.2.1c-.2.1-.3.2-.5.2-.1,0-.2.1-.3.1-.1.1-.3.1-.4.2-.2.1-.4.1-.6.2-.1,0-.3.1-.4.1a6.373,6.373,0,0,1-.7.2c-.2,0-.3.1-.5.1a1.7,1.7,0,0,1-.7.1c-.2,0-.3.1-.5.1-.3,0-.5.1-.8.1-.2,0-.3.1-.5.1-.3,0-.6.1-.9.1h-.5c-.5,0-1,.1-1.5.1h-4.6c-.3,0-.6-.1-.9-.1a1.268,1.268,0,0,1-.6-.1c-.3,0-.6-.1-.8-.1s-.3-.1-.5-.1c-.3-.1-.5-.1-.8-.2-.1,0-.3-.1-.4-.1-.3-.1-.5-.2-.8-.3-.1,0-.2-.1-.3-.1a4.053,4.053,0,0,1-.9-.5l-.9-.6,14.3,11.2a7.019,7.019,0,0,0,.9.6h0a3.552,3.552,0,0,0,.9.4c.1,0,.2.1.3.1a6.891,6.891,0,0,0,.8.3c.1,0,.3.1.4.1.2.1.5.1.8.2.2,0,.3.1.5.1a2.2,2.2,0,0,0,.8.1c.2,0,.4.1.6.1.3,0,.6.1.9.1h4.7c.5,0,1-.1,1.5-.1h.5c.3,0,.6-.1.9-.1.2,0,.3-.1.5-.1.3,0,.5-.1.8-.1.2,0,.3-.1.5-.1s.5-.1.7-.1h.2c.1,0,.2-.1.3-.1.2-.1.5-.1.7-.2.1,0,.3-.1.4-.1.2-.1.4-.1.6-.2a.349.349,0,0,0,.2-.1c.1,0,.1-.1.2-.1s.2-.1.3-.1c.2-.1.3-.2.5-.2a.349.349,0,0,0,.2-.1.1.1,0,0,0,.1-.1c.1,0,.1-.1.2-.1a2.092,2.092,0,0,0,.6-.4l.1-.1.1-.1c.1-.1.3-.2.4-.3l.1-.1v-.1a1.755,1.755,0,0,0,.4-.5l.1-.1h0c.1-.1.1-.2.2-.3,0-.1.1-.1.1-.2a.367.367,0,0,0,.1-.3c0-.1.1-.1.1-.2s.1-.2.1-.4c0-.1,0-.1.1-.2,0-.2.1-.4.1-.6a4.058,4.058,0,0,0-1.4-3.2L289,118.4Z"/><path class="a" d="M288.9,92.6l14.3,11.2a6.279,6.279,0,0,1,2.5,4.6L291.4,97.2A6.279,6.279,0,0,0,288.9,92.6Z"/><g class="c"><path class="d" d="M305.7,108.4,291.4,97.2a7.267,7.267,0,0,0-2.5-4.6l14.3,11.2a7.267,7.267,0,0,1,2.5,4.6"/></g><path class="a" d="M315.4,115.8l-.9-.3-.6-.2c-.3-.1-.6-.2-1-.3l-.5-.1-1.2-.3-.4-.1c-.5-.1-1.1-.2-1.6-.3l-.4-.1c-.4-.1-.8-.1-1.2-.2,0,0-1.3-.2-1.6-.2l-1.6-.2-2.4-.3-4.6-.5c-.5-.1-1-.1-1.5-.2l-7-.9a4.253,4.253,0,0,1-1.1-.2h-.2c-.3-.1-.6-.1-.9-.2h-.1a1.854,1.854,0,0,0-.7-.2l-.1-.1-.6-.3-.1-.1a2.185,2.185,0,0,1-.5-.3l-11.4-9h.2c.4.1.7.1,1.1.2l7,.9c.5.1,1,.1,1.5.2l5.4.6,1.6.2,1.6.2c.3,0,1.6.2,1.6.2.4.1.8.1,1.2.2l.4.1c.5.1,1,.2,1.6.3l.3.1,1.2.3.5.1.9.3a2.015,2.015,0,0,1,.6.2l.9.3c.2.1.4.1.6.2.3.1.5.2.8.3a1.421,1.421,0,0,0,.6.2,2.994,2.994,0,0,1,.8.4l.8.4a.758.758,0,0,0,.4.2,3.329,3.329,0,0,0,.6.3,7.632,7.632,0,0,1,1.1.8l9.6,7.6A1.166,1.166,0,0,1,315.4,115.8Z"/><path class="b" d="M274.9,101.9l6.5.8c.5.1,1,.1,1.5.2h.6l1,.1.9.1.7.1.5.1,1,.1.6.1h.1l.9.1.7.1c.3,0,.6.1.9.1h.1l.6.1c.3,0,.7.1,1,.1h.2l.4.1c.4.1.8.1,1.2.2h.4l1.5.3h.4l1.2.3c.1,0,.2.1.3.1l.2.1.9.3c.1,0,.3.1.4.1h.1a6.888,6.888,0,0,1,.8.3c.2.1.4.1.6.2.3.1.5.2.8.3a1.69,1.69,0,0,0,.5.2,2.994,2.994,0,0,1,.8.4c.2.1.3.2.5.3a.1.1,0,0,1,.1.1h.1c.1.1.2.1.4.2l.2.1.2.1c.1,0,.1.1.2.1a10.477,10.477,0,0,1,1.1.8l7.4,5.8c-.1,0-.2-.1-.3-.1l-.2-.1c-.1,0-.2-.1-.4-.1l-1.2-.3h-.1c-.1,0-.2,0-.2-.1-.5-.1-1.1-.2-1.6-.3h-.5c-.4-.1-.8-.1-1.2-.2l-.4-.1h-.2a3.4,3.4,0,0,0-1-.1l-.6-.1h-.1c-.3,0-.6-.1-1-.1l-.7-.1-.9-.1-.7-.1-1-.1-.5-.1-.6-.1-.9-.1-.9-.1h-.7c-.5-.1-1-.1-1.5-.2l-7-.9a6.53,6.53,0,0,1-1.1-.2h-.2c-.3-.1-.6-.1-.9-.2h-.1c-.2-.1-.4-.1-.6-.2h-.2l-.6-.3h0c-.2-.1-.3-.2-.5-.3l-9.9-7.8m-5-2.6,14.3,11.2c.2.1.4.3.6.4h.2a4.876,4.876,0,0,0,.7.3.1.1,0,0,1,.1.1c.2.1.5.2.7.3h.1a2.92,2.92,0,0,0,.9.2h.2c.3.1.7.1,1.1.2l7,.9c.5.1,1,.1,1.5.2a1.268,1.268,0,0,1,.6.1c.3,0,.7.1,1,.1s.6.1.9.1c.4,0,.7.1,1.1.1.3,0,.7.1,1,.1.2,0,.5.1.7.1.3,0,.6.1.9.1.2,0,.5.1.7.1.3,0,.6.1,1,.1.2,0,.5.1.7.1.3,0,.7.1,1,.1.2,0,.4.1.6.1.4.1.8.1,1.2.2a.6.6,0,0,1,.4.1c.5.1,1.1.2,1.6.3.1,0,.2.1.4.1l1.2.3a4.331,4.331,0,0,1,.5.1c.3.1.6.2,1,.3.2.1.4.1.6.2l.9.3c.2.1.4.1.6.2.3.1.5.2.8.3l.6.3a2.994,2.994,0,0,1,.8.4,2.185,2.185,0,0,1,.5.3,5.582,5.582,0,0,1,.8.5.758.758,0,0,0,.4.2,10.477,10.477,0,0,1,1.1.8L306.6,108a7.632,7.632,0,0,0-1.1-.8.758.758,0,0,0-.4-.2,2.092,2.092,0,0,1-.6-.4.349.349,0,0,1-.2-.1,2.185,2.185,0,0,1-.5-.3c-.3-.1-.5-.3-.8-.4l-.6-.3c-.3-.1-.5-.2-.8-.3-.2-.1-.4-.1-.6-.2l-.9-.3c-.2-.1-.4-.1-.6-.2-.3-.1-.6-.2-1-.3a4.331,4.331,0,0,1-.5-.1l-1.2-.3c-.1,0-.2-.1-.4-.1-.5-.1-1-.2-1.6-.3a.6.6,0,0,1-.4-.1c-.4-.1-.8-.1-1.2-.2-.2,0-.4-.1-.6-.1a3.4,3.4,0,0,0-1-.1c-.2,0-.5-.1-.7-.1-.3,0-.6-.1-1-.1-.2,0-.5-.1-.7-.1-.3,0-.6-.1-.9-.1-.2,0-.5-.1-.7-.1-.3,0-.7-.1-1-.1-.4,0-.8-.1-1.1-.1s-.6-.1-.9-.1-.7-.1-1-.1a1.268,1.268,0,0,1-.6-.1c-.5-.1-1-.1-1.5-.2l-7-.9a4.253,4.253,0,0,1-1.1-.2h-.2c-.3-.1-.6-.1-.9-.2h-.1a4.876,4.876,0,0,1-.7-.3.1.1,0,0,1-.1-.1c-.2-.1-.5-.2-.7-.3a.1.1,0,0,1-.1-.1,1.493,1.493,0,0,1-.7-.3Z"/><path class="a" d="M266,150.6l-14.3-11.2c-4.8-3.8-7-9.7-6.5-18l14.3,11.2C259,141,261.2,146.8,266,150.6Z"/><g class="e"><path class="d" d="M266,150.6l-14.3-11.2c-4.8-3.8-7-9.7-6.5-18l14.3,11.2c-.5,8.4,1.7,14.2,6.5,18"/></g><path class="a" d="M246.6,121.9l18.1-.8,13.1,10.3-18.1.7Z"/><path class="b" d="M264.5,121.6l11.9,9.3-16.5.7L248,122.3l16.5-.7m.3-1-19.6.8,14.3,11.2,19.6-.8-14.3-11.2Z"/><path class="a" d="M253.4,109.2c-3.8-3-5.5-7.3-5.3-13.4a6.149,6.149,0,0,1,.1-1.4V94c0-.3.1-.7.1-1a.6.6,0,0,1,.1-.4l.3-1.2v-.1a6.469,6.469,0,0,1,.4-1.3l.1-.4.3-.9c.1-.1.1-.3.2-.4a9.292,9.292,0,0,1,.5-1v-.1a12.749,12.749,0,0,1,.7-1.2l.2-.3c.2-.3.4-.5.6-.8l.1-.2.1-.1a6.469,6.469,0,0,1,.8-.9l.1-.1a9.429,9.429,0,0,1,1-1l.1-.1.2-.2.6-.6.4-.3c.2-.2.5-.4.7-.6l.2-.2.1-.1a8.34,8.34,0,0,1,1.2-.8,14.8,14.8,0,0,1,1.3-.8l.1-.1.2-.1c.4-.2.8-.5,1.3-.7l.3-.2a11.11,11.11,0,0,1,1.6-.7h.1a8.338,8.338,0,0,1,1.2-.4,9.2,9.2,0,0,1,.9-.3c.2-.1.3-.1.5-.2s1.4-.4,1.4-.4a4.5,4.5,0,0,1,.8-.2l.8-.2h.2c.8-.2,1.5-.3,2.3-.5l.3-.1a20.236,20.236,0,0,1,2.6-.4l.5-.1,2.7-.3h.5c1-.1,2-.1,3-.2h.3c1,0,1.9-.1,2.9-.1h3.6a21.116,21.116,0,0,1,2.6.2h.4c1,.1,1.8.2,2.6.3a20.481,20.481,0,0,1,2.4.5l.4.1c.7.2,1.4.4,2.2.6l.4.1c.7.2,1.4.5,2,.7l.3.1a15.042,15.042,0,0,1,1.8.9h.1a4.349,4.349,0,0,1,.7.4,3.208,3.208,0,0,1,.5.3,7.632,7.632,0,0,1,1.1.8l9.5,7.4a4.951,4.951,0,0,0-1.3-.4l-.4-.1c-.7-.2-1.5-.4-2.2-.6l-.4-.1c-.9-.2-1.7-.3-2.5-.5q-1.2-.15-2.7-.3h-.4c-.9-.1-1.7-.1-2.6-.2h-.5c-.9,0-1.8-.1-2.7-.1h-.5c-.9,0-1.9,0-2.9.1h-.3c-1,0-2,.1-3,.2h-.5l-2.7.3-.5.1c-.9.1-1.8.3-2.6.4l-.3.1c-.8.2-1.6.3-2.4.5l-.3.1a8.331,8.331,0,0,0-1.5.4c-.2,0-1.3.4-1.5.4-.2.1-1.2.4-1.4.5s-.8.3-.8.3c-.2.1-.4.1-.6.2-.6.2-1.1.5-1.7.7l-.4.2a5.388,5.388,0,0,0-1.3.7l-.4.2c-.4.3-.9.5-1.3.8l-1.2.9-.4.3a4.351,4.351,0,0,0-.7.6c-.1.1-.3.2-.4.3-.2.2-.5.4-.7.6l-.3.3a10.949,10.949,0,0,0-1,1.1l-.1.1c-.3.4-.6.7-.8,1a1.38,1.38,0,0,0-.3.4l-.6.9-.2.3c-.2.4-.5.8-.7,1.2v.1a6.117,6.117,0,0,0-.5,1.2c-.1.1-.1.3-.2.4a6.9,6.9,0,0,1-.4,1l-.1.4c-.1.4-.3.9-.4,1.4v.1c-.1.4-.2.9-.3,1.3l-.1.3c-.1.4-.1.8-.2,1.2v.4c0,.5-.1,1-.1,1.5a18.667,18.667,0,0,0,2.2,10.1Z"/><path class="b" d="M283.4,74h3.1a21.116,21.116,0,0,1,2.6.2h.4c1,.1,1.8.2,2.5.3h0c.8.1,1.5.3,2.4.4h.4l2.1.6c.1,0,.3.1.4.1.7.2,1.4.5,2,.7l.1.1.1.1a15.042,15.042,0,0,1,1.8.9h.1c.2.1.4.3.6.4l.1.1.2.1c.1,0,.1.1.2.1a8.649,8.649,0,0,1,1,.7l7.3,5.7c-.4-.1-.9-.2-1.3-.3l-.2-.1h-.1c-.9-.2-1.7-.3-2.5-.5-.8-.1-1.6-.2-2.7-.3h-.5c-.8-.1-1.7-.1-2.7-.2h-.5c-.9,0-1.8-.1-2.7-.1h-.5a28.1,28.1,0,0,0-2.9.1h-.3c-.9,0-1.9.1-3,.2h-.5l-2.7.3-.4.1h-.1c-1,.1-1.8.3-2.6.4h-.3c-.8.2-1.6.3-2.4.5h-.3a4.331,4.331,0,0,0-.5.1l-.2.1h-.2c-.2.1-.4.1-.6.2-.2,0-.3.1-.5.2l-.2.1h-.2c-.2.1-.4.1-.6.2s-.3.1-.5.2l-.2.1h-.1c-.2.1-.4.1-.6.2s-.3.1-.5.2l-.2.1h-.1a1.421,1.421,0,0,1-.6.2,13.017,13.017,0,0,0-1.7.8.349.349,0,0,0-.2.1l-.1.1c-.5.2-.9.5-1.3.7l-.1.1c-.1,0-.2.1-.3.1a14.8,14.8,0,0,0-1.3.8,9.384,9.384,0,0,0-1.2.9c-.1.1-.2.1-.3.2l-.1.1c-.3.2-.5.4-.8.6-.1.1-.3.2-.4.3-.2.2-.5.4-.7.6l-.1.1c-.1.1-.2.2-.3.2a9.958,9.958,0,0,0-1,1.1l-.1.1c-.3.3-.5.7-.8,1a1.38,1.38,0,0,0-.3.4l-.6.9-.1.1a.31.31,0,0,0-.1.2,7.461,7.461,0,0,0-.7,1.2.1.1,0,0,1-.1.1h0a5.359,5.359,0,0,0-.5,1.1c-.1.1-.1.2-.2.4-.1.3-.3.7-.4,1v.1c0,.1-.1.2-.1.3a10.259,10.259,0,0,0-.4,1.4v.1c-.1.4-.2.8-.3,1.3a.756.756,0,0,1-.1.4v.1a4.1,4.1,0,0,0-.1,1.1v.4c0,.6-.1,1.1-.1,1.5a20.081,20.081,0,0,0,1.3,8.4l-8.4-6.6q-5.4-4.2-5.1-12.9a7.084,7.084,0,0,1,.1-1.4v-.4c0-.3.1-.7.1-1v-.1a.367.367,0,0,1,.1-.3,5.019,5.019,0,0,0,.2-1.2v-.1a9.289,9.289,0,0,1,.4-1.3.349.349,0,0,1,.1-.2v-.1a3.552,3.552,0,0,1,.4-.9c0-.1.1-.2.1-.3a4.672,4.672,0,0,1,.5-1l.1-.1v-.1c.2-.4.4-.7.6-1.1,0-.1.1-.1.1-.2l.1-.1a3.509,3.509,0,0,0,.5-.8l.1-.1.1-.1.1-.1c.2-.3.5-.6.7-.9l.1-.1h0a9.015,9.015,0,0,0,.9-1l.1-.1.1-.1.1-.1.6-.6a1.381,1.381,0,0,1,.4-.3c.2-.2.5-.4.7-.6l.1-.1.1-.1.1-.1a8.34,8.34,0,0,1,1.2-.8c.4-.2.8-.5,1.2-.7l.1-.1h.1a.1.1,0,0,0,.1-.1,7.46,7.46,0,0,0,1.2-.7l.1-.1.2-.1c.5-.2,1.1-.5,1.6-.7h.1c.1,0,.2-.1.3-.1l.2-.1.2-.1c.2-.1.3-.1.5-.2s.4-.1.6-.2h.1l.2-.1c.2-.1.3-.1.5-.2s.4-.1.6-.2h.2l.2-.1c.2,0,.3-.1.5-.1.2-.1.4-.1.6-.2h.2l.2-.1c.2,0,.3-.1.5-.1h.3c.8-.2,1.5-.3,2.3-.5h.2c.8-.1,1.6-.3,2.5-.4h.1l.4-.1,2.7-.3h.5c1.1-.1,2-.1,2.9-.2h.4c.9,0,1.9-.1,2.8-.1h.2l.2.4h0m0-1h-.5c-.9,0-1.9,0-2.9.1h-.4c-1,0-2,.1-3,.2h-.5l-2.7.3a.9.9,0,0,0-.5.1c-.9.1-1.7.3-2.6.4a.367.367,0,0,0-.3.1c-.8.2-1.6.3-2.4.5h-.3c-.2.1-.5.1-.7.2-.3.1-.5.1-.8.2-.2.1-.5.1-.7.2a2.353,2.353,0,0,1-.8.2,6.373,6.373,0,0,1-.7.2c-.2.1-.5.2-.7.3a1.421,1.421,0,0,1-.6.2c-.2.1-.4.1-.6.2h-.1c-.6.2-1.1.5-1.7.7-.1.1-.2.1-.4.2a8.265,8.265,0,0,0-1.3.7.349.349,0,0,0-.2.1l-.1.1a9.129,9.129,0,0,0-1.3.8h0c-.4.3-.8.5-1.2.8l-.1.1c-.1.1-.2.1-.3.2-.2.2-.5.4-.7.6-.1.1-.3.2-.4.3a4.349,4.349,0,0,1-.7.6c-.1.1-.2.1-.2.2l-.1.1-1,1-.1.1a8.745,8.745,0,0,0-.8,1l-.1.1c0,.1-.1.1-.1.2a5.546,5.546,0,0,1-.6.8c-.1.1-.1.2-.2.3-.2.4-.5.8-.7,1.2,0,.1-.1.1-.1.2a11.731,11.731,0,0,0-.5,1.1c-.1.1-.1.3-.2.4a3.552,3.552,0,0,1-.4.9c0,.1-.1.2-.1.4-.1.4-.3.9-.4,1.3V91c-.1.4-.2.8-.3,1.3a.6.6,0,0,1-.1.4,3.4,3.4,0,0,0-.1,1v.4c0,.5-.1,1-.1,1.5-.2,6.8,2,11,5.5,13.8l14.3,11.2c-3.5-2.8-5.7-7-5.5-13.8a7.568,7.568,0,0,1,.1-1.5v-.4c0-.4.1-.7.1-1a.6.6,0,0,1,.1-.4c.1-.4.2-.8.3-1.3v-.1a6.47,6.47,0,0,1,.4-1.3c0-.1.1-.3.1-.4a3.553,3.553,0,0,1,.4-.9c.1-.1.1-.3.2-.4.2-.4.3-.7.5-1.1,0-.1.1-.1.1-.2a7.458,7.458,0,0,1,.7-1.2c.1-.1.1-.2.2-.3a5.547,5.547,0,0,1,.6-.8c.1-.1.2-.2.2-.3a7.008,7.008,0,0,1,.8-1l.1-.1a4.74,4.74,0,0,1,1-1l.3-.3a4.349,4.349,0,0,1,.7-.6,1.381,1.381,0,0,1,.4-.3c.2-.2.5-.4.7-.6a1.381,1.381,0,0,1,.4-.3,8.34,8.34,0,0,1,1.2-.8h0a14.8,14.8,0,0,1,1.3-.8c.1-.1.2-.1.4-.2.4-.2.8-.5,1.3-.7.1-.1.2-.1.4-.2a8.65,8.65,0,0,1,1.7-.7,4.876,4.876,0,0,1,.7-.3,1.421,1.421,0,0,1,.6-.2c.2-.1.5-.2.7-.3a1.445,1.445,0,0,1,.7-.2,1.884,1.884,0,0,1,.8-.2c.2-.1.5-.1.7-.2.3-.1.5-.1.8-.2.2-.1.5-.1.7-.2a.367.367,0,0,0,.3-.1,20.481,20.481,0,0,1,2.4-.5.367.367,0,0,0,.3-.1,20.236,20.236,0,0,1,2.6-.4.9.9,0,0,0,.5-.1l2.7-.3h.5c1-.1,2-.1,3-.2h.3c1,0,1.9-.1,2.9-.1h.5a24.37,24.37,0,0,1,2.7.1h.5a21.116,21.116,0,0,1,2.6.2h.4c.9.1,1.8.2,2.6.3h0a20.481,20.481,0,0,1,2.4.5c.1,0,.2.1.4.1.8.2,1.5.4,2.2.6.1,0,.3.1.4.1a11.918,11.918,0,0,1,2,.8c.1,0,.2.1.3.1.7.3,1.3.6,1.9.9a.1.1,0,0,1,.1.1,3.508,3.508,0,0,1,.8.5.758.758,0,0,0,.4.2c.4.3.7.5,1.1.8L304.2,78.1c-.4-.3-.7-.5-1.1-.8a.758.758,0,0,0-.4-.2c-.3-.2-.5-.3-.8-.5h-.1c-.6-.3-1.2-.6-1.9-.9-.1,0-.2-.1-.3-.1-.7-.3-1.3-.5-2-.8-.1,0-.3-.1-.4-.1-.7-.2-1.4-.4-2.2-.6-.1,0-.2-.1-.4-.1-.8-.2-1.6-.3-2.4-.5h0c-.8-.1-1.7-.2-2.6-.3h-.4c-.9-.1-1.7-.1-2.6-.2h-3.2Z"/><path class="b" d="M294.1,84.3c19-.8,32,4,31.1,23.2l-19.4.8c-.7-4.4-4.3-7.1-12.6-6.7-7.2.3-10.3,2.7-10.4,5.7-.1,1.9,1.1,4.2,6.1,4.8l7,.9c13.1,1.7,31.1,1.4,30.6,19.8-.4,14.6-11.7,22.3-34.1,23.2H292c-22.8.9-33.4-5.9-32.4-23.4l19.6-.8c.1,4.5,3.8,7.2,13.2,6.9h.4c8-.3,11.8-2.9,11.9-5.9.1-2.2-1.1-4.4-7.5-5l-8.5-1c-12.5-1.6-27.4-2.5-27-19.7C262.2,93.8,273,85.2,294.1,84.3Z"/><path class="a" d="M153.8,226.1l1.3-48.4,13.3,10.5-1.3,48.4Z"/><path class="b" d="M155.6,178.7l12.3,9.7-1.3,47.2-12.3-9.7,1.3-47.2m-.9-2-1.4,49.6,14.3,11.2,1.4-49.6-14.3-11.2Z"/><path class="b" d="M215.4,167.5l-.5,18.5L191,187l-1.4,49.7-22.1.9,1.4-49.7-23.9,1,.5-18.5Z"/><path class="a" d="M131.2,177.4l.5-17.2L145,170.6l-.5,17.3Z"/><path class="b" d="M132.2,161.2l12.3,9.7-.4,16-12.3-9.7.4-16m-1-2-.5,18.5L145,188.9l.5-18.5-14.3-11.2Z"/><path class="a" d="M132.6,159.6l68.4-2.8,13.1,10.3-68.4,2.8Z"/><path class="b" d="M200.8,157.3l11.9,9.3-66.9,2.7L134,160l66.8-2.7m.4-1-69.9,2.9,14.3,11.2,69.9-2.9-14.3-11.2Z"/><path class="a" d="M214.1,122.2h.4l13,10.3h-.3Z"/><path class="b" d="M214.6,121.7l-1.9.1L227,133l1.9-.1Z"/><path class="a" d="M201.4,146.3l-5-31.4,13.1,10.3,5,31.4Z"/><path class="b" d="M197.1,116.1l12,9.4,4.7,29.9-12-9.4-4.7-29.9m-1.4-2.4,5.2,32.8,14.3,11.2L210,125l-14.3-11.3Z"/><path class="a" d="M224.4,78l21.1-.8,13,10.3-21.1.8Z"/><path class="b" d="M245.3,77.7,257.2,87l-19.6.8-11.9-9.3,19.6-.8m.3-1-22.6.9,14.3,11.2,22.6-.9L245.6,76.7Z"/><path class="a" d="M215.2,121.5l8.1-43L236.7,89l-8.1,43Z"/><path class="b" d="M223.7,79.4l12.5,9.8-7.9,41.9-12.5-9.8,7.9-41.9m-.7-1.8-8.4,44.1,14.3,11.2,8.4-44.1L223,77.6Z"/><path class="a" d="M175.7,123.8h.4l13.1,10.3h-.4Z"/><path class="b" d="M176.3,123.3l-1.9.1,14.3,11.2,1.9-.1Z"/><path class="a" d="M176.8,123.1l10.5-43.2,13.4,10.6-10.4,43.1Z"/><path class="b" d="M187.6,80.8l12.6,9.9L190,132.8l-12.6-9.9,10.2-42.1m-.6-1.7-10.7,44.2,14.3,11.2,10.7-44.2L187,79.1Z"/><path class="a" d="M188.4,79.5l15.9-.6,13.1,10.3-15.9.6Z"/><path class="b" d="M204.1,79.4,216,88.7l-14.4.6L189.8,80l14.3-.6m.3-1-17.4.7,14.3,11.2,17.4-.7L204.4,78.4Z"/><path class="b" d="M259.9,87.9,245,156.6l-29.8,1.2L210,125h-1.9L201,158.4l-29.8,1.2L160.1,92l22.7-.9,5.9,43.5,1.9-.1,10.7-44.2,17.4-.7L227,133l1.9-.1,8.4-44.1Z"/><path class="a" d="M147.2,81.2l21.1-.9,13.1,10.3-21.1.9Z"/><path class="b" d="M168.1,80.8,180,90.1l-19.5.9-11.9-9.3,19.5-.9m.4-1-22.6.9L160.1,92l22.6-.9L168.5,79.8Z"/><path class="a" d="M157.4,148.1,146.5,81.9l13.2,10.4,10.8,66.1Z"/><path class="b" d="M147.2,83.1l12,9.4,10.6,64.7-12-9.4L147.2,83.1m-1.4-2.3,11.1,67.6,14.3,11.2L160.1,92,145.8,80.8Z"/><path class="a" d="M179.6,51.7l36.8-1.5,13.1,10.2L192.7,62Z"/><path class="b" d="M216.3,50.7,228.2,60,193,61.4l-12-9.3,35.3-1.4m.3-1.1-38.3,1.6,14.3,11.2,38.3-1.6L216.6,49.6Z"/><path class="a" d="M180.3,28.3l34.9-1.4,13,10.3-34.8,1.4Z"/><path class="b" d="M215,27.4l11.9,9.3-33.3,1.4-11.9-9.3L215,27.4m.3-1-36.4,1.5,14.3,11.2,36.4-1.5L215.3,26.4Z"/><path class="b" d="M232.3,11.2l-.5,17.6-38.3,1.5-.3,8.8,36.4-1.5-.4,14.6-36.4,1.5-.2,8.8,38.3-1.6-.5,18.5L170,81.9l1.9-68.2Z"/><path class="a" d="M156.2,70.4l1.9-66.9L171.4,14l-1.9,66.9Z"/><path class="b" d="M158.6,4.5l12.3,9.7-1.8,65.7-12.3-9.7,1.8-65.7m-1-2-1.9,68.1L170,81.9l1.9-68.1L157.6,2.5Z"/><path class="a" d="M159,2.9,217.8.5l13.1,10.3-58.8,2.4Z"/><path class="b" d="M217.6,1l11.9,9.3-57.3,2.3L160.3,3.3,217.6,1m.4-1L157.7,2.5,172,13.7l60.3-2.5L218,0Z"/><path class="a" d="M87.1,211.1l36.8-1.5L137,219.8l-36.8,1.5Z"/><path class="b" d="M123.8,210.1l11.9,9.3-35.2,1.4-11.9-9.3,35.2-1.4m.3-1.1-38.3,1.6,14.3,11.2,38.3-1.6L124.1,209Z"/><path class="a" d="M88.8,187.6l34.8-1.4,13.1,10.3-34.9,1.4Z"/><path class="b" d="M123.5,186.7l11.9,9.3-33.3,1.4-11.9-9.3,33.3-1.4m.3-1-36.4,1.5,14.3,11.2,36.4-1.5-14.3-11.2Z"/><path class="b" d="M139.8,170.6l-.5,17.6-37.4,1.5-.2,8.7,36.4-1.4-.4,14.6-37.4,1.5-.2,8.8,38.3-1.6-.5,18.5-60.4,2.5,1.9-68.2Z"/><path class="a" d="M63.7,229.8l1.9-66.9,13.3,10.4L77,240.2Z"/><path class="b" d="M66.1,163.9l12.3,9.7-1.8,65.7-12.3-9.7,1.8-65.7m-1-2L63.2,230l14.3,11.2L79.4,173,65.1,161.9Z"/><path class="a" d="M66.5,162.3l58.8-2.4,13.1,10.3-58.8,2.4Z"/><path class="b" d="M125.2,160.4l11.9,9.3L79.8,172l-11.9-9.3,57.3-2.3m.3-1-60.3,2.5,14.3,11.2,60.3-2.5-14.3-11.2Z"/><path class="a" d="M102.7,132.6l36.8-1.5,13.1,10.3-36.8,1.5Z"/><path class="b" d="M139.4,131.6l11.9,9.3-35.2,1.4L104.2,133l35.2-1.4m.3-1-38.3,1.6,14.3,11.2,38.3-1.6-14.3-11.2Z"/><path class="a" d="M104.4,109.2l34.8-1.4,13.1,10.3-34.9,1.4Z"/><path class="b" d="M139,108.3l11.9,9.3L117.6,119l-11.9-9.3,33.3-1.4m.4-1L103,108.8,117.3,120l36.4-1.5-14.3-11.2Z"/><path class="b" d="M155.4,92.2l-.5,17.5-37.4,1.6-.2,8.7,36.4-1.5-.4,14.6-37.4,1.6-.2,8.7,38.3-1.6-.5,18.5-60.4,2.5L95,94.7Z"/><path class="a" d="M79.3,151.3l1.9-66.9L94.5,94.9l-1.9,66.9Z"/><path class="b" d="M81.7,85.4,94,95.1l-1.8,65.7-12.3-9.7,1.8-65.7m-1-2-1.9,68.1,14.3,11.2,1.9-68L80.7,83.4Z"/><path class="a" d="M82.1,83.9l58.8-2.4L154,91.8,95.2,94.2Z"/><path class="b" d="M140.8,82l11.9,9.3L95.4,93.6,83.5,84.3,140.8,82m.3-1L80.8,83.5,95,94.7l60.3-2.5L141.1,81Z"/><path class="a" d="M128.4,71.5l.7-23.1,13.3,10.5L141.8,82Z"/><path class="b" d="M129.6,49.4l12.3,9.7L141.3,81,129,71.3l.6-21.9m-1-2-.7,24.3L142.2,83l.7-24.3L128.6,47.4Z"/><path class="a" d="M129.7,27.7l.6-23.1,13.3,10.5L143,38.2Z"/><path class="b" d="M130.8,5.6l12.3,9.7-.6,21.8-12.3-9.7.6-21.8m-.9-2-.7,24.3,14.3,11.2.7-24.3L129.9,3.6Z"/><path class="a" d="M131.2,4.1l20.5-.9,13.1,10.3-20.5.8Z"/><path class="b" d="M151.6,3.7,163.5,13l-19,.8L132.6,4.5l19-.8m.3-1-22,.9,14.3,11.2,22-.9L151.9,2.7Z"/><path class="a" d="M104.7,29.5l24.3-1,13.1,10.2-24.3,1Z"/><path class="b" d="M128.8,29l11.9,9.3-22.8.9L106,29.9l22.8-.9m.4-1.1L103.3,29l14.3,11.2,25.9-1.1L129.2,27.9Z"/><path class="b" d="M166.2,14l-1.9,68.1-22.1.9.7-24.3-25.9,1-.6,24.4L94.3,85l1.9-68.2,22.1-.9-.7,24.3,25.9-1,.6-24.3Z"/><path class="a" d="M80.5,73.5,82.4,6.6,95.7,17.1,93.9,84Z"/><path class="b" d="M82.9,7.6l12.3,9.7L93.4,83,81.1,73.3,82.9,7.6m-.9-2L80,73.7,94.3,85l1.9-68.1L82,5.6Z"/><path class="a" d="M83.3,6l20.5-.8,13.1,10.3-20.5.8Z"/><path class="b" d="M103.7,5.7,115.6,15l-19,.8L84.7,6.5l19-.8m.3-1L82,5.6,96.3,16.8l22-.9L104,4.7Z"/><path class="a" d="M23.9,213.7l33.9-1.4,13.1,10.2L37,223.9Z"/><path class="b" d="M57.7,212.8l11.9,9.3-32.4,1.3-11.9-9.3,32.4-1.3m.3-1-35.4,1.5,14.3,11.2L72.3,223,58,211.8Z"/><path class="b" d="M38.2,174.8l-1.4,49.6L72.3,223l-.5,18.5-57.5,2.3,1.9-68.1Z"/><path class="a" d="M.5,232.4l1.9-66.9,13.3,10.4-1.9,66.9Z"/><path class="b" d="M2.9,166.5l12.3,9.7-1.8,65.7L1,232.1l1.9-65.6m-1-2L0,232.6l14.3,11.2,1.9-68.2L1.9,164.5Z"/><path class="a" d="M3.3,164.9l20.5-.8,13.1,10.2-20.5.9Z"/><path class="b" d="M23.6,164.6l11.9,9.3-19,.8L4.6,165.4l19-.8m.3-1-22,.9,14.3,11.2,22-.9L23.9,163.6Z"/><path class="a" d="M52.2,122.1l.5-.1,13.1,10.3h-.5Z"/><path class="b" d="M52.9,121.5l-2.1.1,14.3,11.2h2.1Z"/><path class="a" d="M53.4,121.3l1-35.8L67.7,96l-1,35.8Z"/><path class="b" d="M54.8,86.5l12.3,9.7-1,34.5L53.8,121l1-34.5m-.9-2-1,37,14.3,11.2,1-37L53.9,84.5Z"/><path class="a" d="M55.3,85l20.5-.9L88.9,94.4l-20.5.9Z"/><path class="b" d="M75.6,84.6,87.5,94l-19,.8L56.6,85.5l19-.9m.3-1-22,.9L68.2,95.7l22-.9L75.9,83.6Z"/><path class="a" d="M49.5,152.5,29.1,118.8l12.1,9.5,20.4,33.6Z"/><path class="b" d="M31,120.9l9.8,7.7,18.9,31.2-9.8-7.7L31,120.9m-3.7-4.2,21.9,36.1L63.4,164,41.5,128,27.3,116.7Z"/><path class="b" d="M90.2,94.9,88.3,163l-24.9,1L41.5,128l-2,.1-1,37-22,.9,1.9-68.2,25-1,21.7,36h2.1l1-37Z"/><path class="a" d="M2.7,154.5,4.6,87.6,17.9,98,16,165Z"/><path class="b" d="M5,88.6l12.3,9.7L15.5,164,3.2,154.3,5,88.6m-.9-2L2.2,154.7,16.5,166l1.9-68.1L4.1,86.6Z"/><path class="a" d="M5.5,87l23.4-.9L42,96.3l-23.4,1Z"/><path class="b" d="M28.8,86.6l11.9,9.3-21.9.9-12-9.3,22-.9m.3-1.1-25,1L18.4,97.7l25-1L29.1,85.5Z"/><path class="a" d="M28.8,75.6l1.4-48.4L43.5,37.7,42.1,86.1Z"/><path class="b" d="M30.7,28.2,43,37.9,41.7,85.1,29.4,75.4l1.3-47.2m-1-2L28.3,75.8,42.6,87,44,37.4,29.7,26.2Z"/><path class="b" d="M90.5,17.1,90,35.6l-24,.9L64.6,86.2l-22,.9L44,37.4l-23.9,1,.5-18.5Z"/><path class="a" d="M6.3,26.9,6.8,9.7,20.1,20.2l-.5,17.2Z"/><path class="b" d="M7.2,10.7l12.3,9.7-.4,16L6.8,26.7l.4-16m-.9-2L5.8,27.2,20.1,38.4l.5-18.5L6.3,8.7Z"/><path class="a" d="M7.7,9.1,76,6.3,89.1,16.6,20.7,19.4Z"/><path class="b" d="M75.9,6.8l11.9,9.3L20.9,18.8,9,9.6,75.9,6.8m.3-1L6.3,8.7,20.6,19.9,90.5,17,76.2,5.8Z"/></svg>