<?xml version="1.0" encoding="utf-8"?>
<!-- Generator: Adobe Illustrator 23.0.1, SVG Export Plug-In . SVG Version: 6.00 Build 0)  -->
<svg version="1.1" id="Layer_1" xmlns="http://www.w3.org/2000/svg" xmlns:xlink="http://www.w3.org/1999/xlink" x="0px" y="0px"
	 viewBox="0 0 196 12.2" style="enable-background:new 0 0 196 12.2;" xml:space="preserve">
<style type="text/css">
	.st0{enable-background:new    ;}
	.st1{fill:#0F0F10;}
</style>
<g class="st0">
	<path class="st1" d="M12.1,3.6h-4v8.1H4.4V3.6h-4V0.5h11.7V3.6z"/>
	<path class="st1" d="M24.7,0.5v11.2h-3.7V7.6h-4.3v4.1H13V0.5h3.7v4.1h4.3V0.5H24.7z"/>
	<path class="st1" d="M34.4,10.2h-4.8l-0.5,1.5h-3.8l4.1-11.2h5.2l4.1,11.2h-3.8L34.4,10.2z M33.5,7.5L32.3,4h-0.6l-1.2,3.5H33.5z"
		/>
	<path class="st1" d="M48.6,3.6h-4v8.1h-3.7V3.6h-4V0.5h11.7V3.6z"/>
	<path class="st1" d="M50.9,3.6h-1.5V0.5h4.3v0.7c0,3.1-0.5,4.9-0.8,5.6h-2.3C50.9,5.7,50.9,4.5,50.9,3.6z"/>
	<path class="st1" d="M54.4,8h3.3c0,0.8,0.7,1.2,2.3,1.2c1.4,0,2.1-0.4,2.1-0.9c0-0.4-0.2-0.7-1.3-0.9l-1.4-0.2
		c-2.1-0.3-4.7-0.6-4.7-3.5c0-2.2,1.8-3.6,5.4-3.6c3.2,0,5.5,0.9,5.4,4.1h-3.3C62,3.5,61.3,3,59.9,3c-1.2,0-1.7,0.4-1.7,0.9
		c0,0.3,0.2,0.7,1.1,0.8l1.2,0.2c2.2,0.4,5.3,0.4,5.3,3.5c0,2.4-1.9,3.7-5.7,3.6C56.1,12.1,54.3,10.9,54.4,8z"/>
	<path class="st1" d="M77.9,11.7l-1.5-2.9h-2.8v2.9h-3.7V0.5h6.4c3.1,0,4.9,1.3,4.9,4.3c0,1.5-0.7,2.6-1.6,3.2l2,3.7H77.9z M73.6,6
		h2.5c0.9,0,1.4-0.5,1.4-1.2c0-0.8-0.5-1.2-1.4-1.2h-2.5V6z"/>
	<path class="st1" d="M82.3,0.5h10.1v3H86v1.4h6.2v2.4H86v1.4h6.4v3H82.3V0.5z"/>
	<path class="st1" d="M101.8,10.2H97l-0.5,1.5h-3.8l4.1-11.2h5.2l4.1,11.2h-3.8L101.8,10.2z M100.9,7.5L99.7,4h-0.6l-1.2,3.5H100.9z
		"/>
	<path class="st1" d="M106.6,0.5h3.7v8.1h6v3.1h-9.7V0.5z"/>
	<path class="st1" d="M117.2,0.5h3.7v8.1h6v3.1h-9.7V0.5z"/>
	<path class="st1" d="M131.8,8.2v3.5h-3.7V8.2l-4.6-7.7h3.9l2.4,4.2h0.3l2.4-4.2h3.9L131.8,8.2z"/>
	<path class="st1" d="M152.2,11.7h-2l-0.1-1.5c-0.8,1.1-2.2,1.9-4.1,1.9c-3.4,0-6.1-2.4-6.1-6c0-3.6,2.5-6,6.4-6
		c2.7,0,5.4,1.3,5.8,4.3h-3.7c-0.2-0.6-1-1.1-2.1-1.1c-1.7,0-2.8,1.1-2.8,2.8c0,1.7,1.2,2.8,2.7,2.8c0.5,0,1.9-0.1,2.3-1.5h-2.5V5.5
		h6V11.7z"/>
	<path class="st1" d="M153,6.1c0-3.6,2.5-6,6.3-6c3.9,0,6.3,2.4,6.3,6c0,3.6-2.5,6-6.3,6C155.5,12.1,153,9.7,153,6.1z M162,6.1
		c0-1.8-1.2-2.8-2.7-2.8s-2.7,1-2.7,2.8c0,1.8,1.2,2.8,2.7,2.8S162,7.9,162,6.1z"/>
	<path class="st1" d="M166.4,6.1c0-3.6,2.5-6,6.3-6c3.9,0,6.3,2.4,6.3,6c0,3.6-2.5,6-6.3,6C168.9,12.1,166.4,9.7,166.4,6.1z
		 M175.4,6.1c0-1.8-1.2-2.8-2.7-2.8s-2.7,1-2.7,2.8c0,1.8,1.2,2.8,2.7,2.8S175.4,7.9,175.4,6.1z"/>
	<path class="st1" d="M191.6,6.1c0,3.2-1.6,5.6-6.2,5.6h-5.6V0.5h5.6C190,0.5,191.6,2.9,191.6,6.1z M187.9,6.1c0-1.8-1-2.5-2.5-2.5
		h-1.9v5h1.9C186.9,8.6,187.9,7.9,187.9,6.1z"/>
	<path class="st1" d="M191.7,10.1c0-1,0.8-1.8,1.8-1.8c1,0,1.8,0.8,1.8,1.8c0,1-0.8,1.8-1.8,1.8C192.6,11.9,191.7,11.1,191.7,10.1z"
		/>
</g>
</svg>
